<?xml version="1.0" standalone="no"?>
<!DOCTYPE svg PUBLIC "-//W3C//DTD SVG 20010904//EN"
 "http://www.w3.org/TR/2001/REC-SVG-20010904/DTD/svg10.dtd">
<svg version="1.0" xmlns="http://www.w3.org/2000/svg"
 width="1123.000000pt" height="1123.000000pt" viewBox="0 0 1123.000000 1123.000000"
 preserveAspectRatio="xMidYMid meet">
<metadata>
Created by potrace 1.14, written by Peter Selinger 2001-2017
</metadata>
<g transform="translate(0.000000,1123.000000) scale(0.100000,-0.100000)"
fill="#000000" stroke="none">
<path d="M1991 10783 c-19 -16 -41 -121 -183 -863 -130 -678 -162 -867 -166
-954 -2 -73 0 -112 8 -120 8 -8 361 -12 1329 -16 l1318 -5 -123 -635 c-68
-349 -142 -734 -165 -855 -23 -121 -45 -223 -48 -228 -4 -4 -85 22 -180 58
-96 36 -184 65 -197 65 -13 0 -32 -8 -42 -18 -34 -34 -322 -472 -322 -490 0
-26 26 -58 210 -256 91 -98 167 -182 169 -188 2 -5 -7 -45 -19 -87 l-22 -78
-166 -166 -167 -165 -135 -36 c-184 -48 -184 -48 -176 -210 3 -67 9 -195 12
-285 6 -150 9 -167 28 -186 17 -16 69 -30 248 -65 l227 -44 50 -50 50 -51 -64
-327 c-35 -180 -67 -333 -71 -340 -4 -7 -23 -32 -42 -56 -41 -50 -45 -86 -14
-129 l21 -29 -74 -380 c-41 -208 -137 -707 -215 -1109 -78 -401 -186 -962
-241 -1245 -55 -283 -122 -630 -149 -771 -28 -141 -50 -262 -50 -268 0 -7 11
-23 25 -36 l24 -25 1064 0 1064 0 20 22 c17 19 61 230 258 1243 304 1566 304
1567 310 1573 3 3 50 -38 104 -91 95 -94 119 -108 151 -87 8 5 94 89 192 186
l176 178 97 -150 c53 -82 104 -155 113 -161 9 -7 28 -13 43 -13 24 0 491 165
539 190 11 6 23 22 26 36 4 13 -8 146 -26 295 -18 149 -31 272 -29 273 2 2 80
63 173 135 102 80 176 131 185 128 9 -3 123 -46 255 -96 131 -50 249 -91 261
-91 13 0 32 8 43 18 12 9 89 118 171 241 104 155 151 233 151 252 0 22 -38 70
-191 234 l-191 206 22 82 23 82 166 166 166 166 143 38 c115 31 147 43 159 62
13 20 14 58 5 310 -10 285 -11 288 -34 308 -18 16 -80 32 -249 65 l-224 43
-63 61 c-61 59 -64 65 -117 210 -30 82 -55 154 -55 158 0 5 75 102 166 214 91
113 170 217 176 230 8 18 8 31 0 49 -16 35 -328 431 -355 450 -12 8 -28 15
-37 15 -8 0 -127 -52 -263 -115 -137 -63 -251 -115 -253 -115 -2 0 -85 54
-184 120 -160 107 -180 123 -180 148 0 15 5 144 12 286 l12 259 -25 21 c-14
12 -79 36 -147 55 -67 18 -122 39 -121 45 0 6 33 178 72 381 l73 370 1321 5
c1208 5 1324 6 1339 21 11 12 70 287 200 945 101 511 184 935 184 942 0 7 -11
24 -25 37 l-24 25 -3754 0 c-3561 0 -3756 -1 -3776 -17z m4054 -125 c8 -8 -26
-190 -406 -2158 l-80 -415 -163 -164 c-114 -114 -169 -162 -180 -158 -8 3 -64
80 -124 170 l-110 163 33 190 c18 104 47 263 65 354 120 634 376 1955 387
1997 2 12 15 24 26 26 34 7 545 3 552 -5z m300 -2719 c99 -27 184 -54 188 -58
5 -5 3 -130 -4 -279 -11 -225 -10 -273 1 -287 7 -8 114 -83 238 -166 178 -120
229 -149 248 -145 13 4 128 54 255 111 225 102 233 105 252 88 25 -22 257
-312 257 -321 0 -4 -61 -83 -136 -177 -75 -93 -152 -193 -170 -220 -31 -47
-33 -53 -23 -90 21 -75 171 -480 182 -492 11 -10 200 -54 440 -101 54 -11 102
-24 107 -28 4 -5 11 -104 15 -220 l6 -212 -33 -10 c-18 -6 -94 -27 -168 -47
-207 -56 -327 -94 -338 -108 -22 -26 -152 -482 -152 -533 0 -26 43 -79 229
-283 78 -84 130 -149 127 -157 -6 -16 -186 -285 -216 -324 l-19 -25 -118 41
c-65 23 -182 66 -261 95 l-142 52 -68 -46 c-37 -25 -139 -104 -227 -175 l-160
-128 1 -73 c2 -67 23 -267 44 -421 5 -35 6 -68 2 -72 -16 -16 -405 -149 -413
-141 -4 4 -59 87 -122 184 -63 97 -130 197 -148 222 l-34 46 -170 0 c-93 0
-224 -4 -290 -9 -106 -8 -121 -11 -136 -32 -10 -12 -68 -110 -129 -218 -61
-108 -120 -206 -129 -219 l-18 -23 -199 56 c-109 32 -202 60 -206 64 -4 4 -3
88 2 187 5 99 10 224 10 277 l0 97 -42 34 c-105 83 -414 277 -443 277 -13 0
-124 -44 -247 -99 -122 -54 -233 -101 -244 -105 -19 -6 -39 16 -148 156 -69
89 -126 168 -126 176 0 7 58 86 128 175 71 89 146 186 167 215 l38 54 -17 56
c-25 81 -112 324 -148 409 -33 81 -27 78 -188 113 -87 20 -388 80 -396 80 -2
0 -4 99 -4 219 l0 220 58 16 c31 10 144 41 250 71 106 29 201 58 210 63 10 5
24 27 30 48 36 114 106 358 123 430 l20 84 -21 27 c-12 15 -85 96 -163 180
-78 85 -153 167 -166 183 l-24 30 119 175 c65 97 122 178 125 180 3 2 71 -22
150 -52 79 -31 195 -73 258 -95 l114 -39 41 26 c67 44 310 231 365 280 62 56
61 43 26 344 -14 117 -25 225 -25 237 0 28 27 41 246 116 127 43 154 49 167
39 9 -7 80 -110 158 -228 l143 -214 131 0 c73 0 201 3 285 7 147 6 155 7 177
31 13 14 70 107 127 206 57 100 112 196 122 213 13 23 26 33 44 33 14 0 106
-23 205 -51z m-1729 -4522 c-4 -84 -16 -215 -27 -292 -18 -128 -119 -672 -204
-1105 -19 -96 -97 -503 -175 -905 -77 -401 -146 -757 -153 -790 l-12 -60 -293
-3 c-160 -1 -292 1 -292 5 0 8 34 186 150 783 133 686 358 1852 435 2250 46
245 87 455 90 466 3 14 22 29 52 42 l46 20 195 -130 194 -130 -6 -151z"/>
<path d="M5448 6559 c-84 -11 -233 -58 -318 -102 -347 -176 -585 -533 -607
-912 -14 -245 45 -476 171 -670 66 -100 213 -253 302 -313 209 -140 417 -199
669 -189 298 11 523 112 741 331 244 246 340 529 305 897 -46 489 -448 898
-941 959 -97 12 -225 11 -322 -1z m405 -396 c120 -42 187 -84 281 -178 92 -92
145 -175 183 -290 25 -72 27 -95 28 -225 0 -126 -3 -154 -23 -215 -37 -111
-90 -201 -163 -279 -155 -166 -349 -244 -579 -234 -183 8 -343 80 -475 212
-258 258 -287 648 -71 950 76 107 195 197 329 250 100 40 138 45 277 42 109
-3 136 -7 213 -33z"/>
</g>
</svg>
